<?xml version="1.0" encoding="UTF-8" standalone="no"?>
<!-- Created with Inkscape (http://www.inkscape.org/) -->

<svg
   width="210mm"
   height="297mm"
   viewBox="0 0 210 297"
   version="1.1"
   id="svg1"
   xmlns="http://www.w3.org/2000/svg"
   xmlns:svg="http://www.w3.org/2000/svg">
  <defs
     id="defs1" />
  <g
     id="layer1">
    <path
       style="paint-order:stroke fill markers"
       d="m 329.22852,441.48633 v 1.77148 c 0,0.54267 -0.0705,0.94553 -0.20313,1.20703 -0.13262,0.26151 -0.31908,0.38477 -0.58008,0.38477 -0.2021,0 -0.38056,-0.0766 -0.54297,-0.23438 -0.1624,-0.15773 -0.30636,-0.39894 -0.42968,-0.72461 -0.0331,-0.0871 -0.0617,-0.2588 -0.0801,-0.50585 -0.0184,-0.24706 -0.0293,-0.57109 -0.0293,-0.97071 v -0.0488 h -1.17578 v 0.0488 c 0,0.75465 -0.0737,1.32966 -0.21484,1.72266 -0.0843,0.23364 -0.18549,0.40594 -0.30079,0.51758 -0.11529,0.11163 -0.2428,0.16601 -0.39062,0.16601 -0.43062,0 -0.74923,-0.23572 -0.97461,-0.72851 -0.10763,-0.23056 -0.19212,-0.48752 -0.25391,-0.77344 v -0.002 l -0.2207,-0.95118 h -1.18164 l 0.39063,1.4336 c 0.0602,0.23053 0.0956,0.59082 0.0996,1.07617 0.004,0.54712 -0.11821,1.0259 -0.36328,1.43945 -0.36352,0.61103 -0.775,1.00332 -1.23437,1.18555 -0.3657,0.14243 -0.73673,0.21484 -1.11328,0.21484 -0.3115,0 -0.6517,-0.0477 -1.01953,-0.14062 -0.27792,-0.0719 -0.47978,-0.20672 -0.61719,-0.4082 -0.13742,-0.20149 -0.21093,-0.47165 -0.21289,-0.81446 -0.004,-0.85116 0.20458,-1.67447 0.62304,-2.47265 l 0.0371,-0.0723 h -1.18945 l -0.0137,0.0234 c -0.41513,0.71165 -0.62109,1.55347 -0.62109,2.52148 0,0.64758 0.13437,1.17408 0.41015,1.57422 0.27579,0.40014 0.6922,0.67151 1.23828,0.8125 0.43018,0.11041 0.89688,0.1659 1.40039,0.16992 0.47235,0 0.86805,-0.0505 1.1875,-0.15429 0.76335,-0.24522 1.40868,-0.70406 1.9336,-1.375 0.3258,-0.41502 0.52664,-0.9756 0.625,-1.6543 0.19484,0.24599 0.51276,0.38157 1.00195,0.35937 0.27647,-0.0118 0.51428,-0.0472 0.71484,-0.10742 h 0.002 c 0.37339,-0.11791 0.63877,-0.50895 0.83203,-1.08398 0.091,0.4586 0.36257,0.84258 0.88086,1.10547 0.19666,0.10243 0.44159,0.15039 0.73242,0.15039 0.12966,0 0.26828,-0.0168 0.41602,-0.0527 0.40958,-0.0964 0.76584,-0.33097 1.06445,-0.69726 0.3684,-0.4525 0.54883,-1.07436 0.54883,-1.85938 v -2.05273 z m 0.0976,0.0976 h 0.98047 v 1.95508 c 0,0.76968 -0.17895,1.36656 -0.5293,1.79688 -0.28733,0.35245 -0.62248,0.57098 -1.00976,0.66211 -0.14134,0.0344 -0.27224,0.0527 -0.39258,0.0527 -0.27947,0 -0.50721,-0.0497 -0.68555,-0.14258 -0.52931,-0.26849 -0.81873,-0.6301 -0.88281,-1.09375 l -0.0957,-0.008 c -0.189,0.61329 -0.46313,0.96585 -0.8125,1.07617 -0.18977,0.0567 -0.41981,0.092 -0.68946,0.10352 -0.50686,0.023 -0.82909,-0.0958 -0.98828,-0.3418 l -0.0605,-0.0957 -0.0293,0.11328 v 0.004 c -0.0929,0.69293 -0.30182,1.2412 -0.62305,1.65039 -0.51414,0.65717 -1.14225,1.10459 -1.88672,1.34375 -0.30554,0.0993 -0.69109,0.15039 -1.15625,0.15039 -0.49649,-0.004 -0.95557,-0.0618 -1.37695,-0.16993 -0.52813,-0.13635 -0.91836,-0.39232 -1.17969,-0.77148 -0.26132,-0.37916 -0.39453,-0.8839 -0.39453,-1.51758 0,-0.9448 0.20597,-1.75684 0.60352,-2.44726 h 0.97851 c -0.4012,0.7896 -0.61711,1.60452 -0.61328,2.44726 0.002,0.35641 0.0749,0.64875 0.22656,0.8711 0.15165,0.22234 0.38152,0.37263 0.67774,0.44921 0.37435,0.0946 0.72165,0.14063 1.04297,0.14063 0.38907,0 0.77195,-0.0721 1.14843,-0.21875 0.48595,-0.19277 0.91431,-0.60517 1.28516,-1.22852 0.25493,-0.43019 0.37896,-0.92798 0.375,-1.49023 -0.004,-0.49033 -0.0352,-0.85548 -0.0996,-1.10156 v -0.002 l -0.35742,-1.30859 h 0.97266 l 0.20117,0.87695 c 0.0631,0.29145 0.15078,0.55726 0.26172,0.79493 0.23555,0.51502 0.59663,0.7832 1.06445,0.7832 0.17249,0 0.32819,-0.0648 0.45898,-0.19141 0.1308,-0.12664 0.23857,-0.31177 0.32618,-0.55469 0.14378,-0.40026 0.20901,-0.97866 0.21289,-1.70898 h 0.98828 c 8.8e-4,0.37398 0.008,0.69122 0.0254,0.92969 0.0187,0.25099 0.0448,0.42499 0.0859,0.5332 0.12667,0.3345 0.27764,0.58938 0.45507,0.76172 0.17744,0.17234 0.38375,0.25977 0.61133,0.25977 0.2937,0 0.52325,-0.15018 0.66797,-0.43555 0.14472,-0.28537 0.21289,-0.70283 0.21289,-1.25391 z m -5.09765,4.09375 v 0.006 h -0.002 c 3.3e-4,-0.002 0.002,-0.003 0.002,-0.006 z"
       id="text2"
       transform="matrix(12.813603,0,0,9.9825441,-4047.9314,-4316.0567)" />
  </g>
</svg>
